{"extensionsUsed":["KHR_materials_unlit"],"asset":{"generator":"UniGLTF-1.24","version":"2.0"},"buffers":[{"byteLength":3968,"uri":"data:application/octet-stream;base64,"}],"bufferViews":[{"buffer":0,"byteOffset":0,"byteLength":864,"target":34962},{"buffer":0,"byteOffset":864,"byteLength":864,"target":34962},{"buffer":0,"byteOffset":1728,"byteLength":576,"target":34962},{"buffer":0,"byteOffset":2304,"byteLength":528,"target":34963},{"buffer":0,"byteOffset":2832,"byteLength":336,"target":34962},{"buffer":0,"byteOffset":3168,"byteLength":336,"target":34962},{"buffer":0,"byteOffset":3504,"byteLength":224,"target":34962},{"buffer":0,"byteOffset":3728,"byteLength":120,"target":34963},{"buffer":0,"byteOffset":3848,"byteLength":96,"target":34963},{"buffer":0,"byteOffset":3944,"byteLength":24,"target":34963}],"accessors":[{"bufferView":0,"byteOffset":0,"type":"VEC3","componentType":5126,"count":72,"max":[0.43,0.390000015,-0.08],"min":[0.2,0,-0.21],"normalized":false},{"bufferView":1,"byteOffset":0,"type":"VEC3","componentType":5126,"count":72,"normalized":false},{"bufferView":2,"byteOffset":0,"type":"VEC2","componentType":5126,"count":72,"normalized":false},{"bufferView":3,"byteOffset":0,"type":"SCALAR","componentType":5125,"count":132,"normalized":false},{"bufferView":4,"byteOffset":0,"type":"VEC3","componentType":5126,"count":28,"max":[0.176311627,0.336311638,0.01],"min":[0,0,-0.01],"normalized":false},{"bufferView":5,"byteOffset":0,"type":"VEC3","componentType":5126,"count":28,"normalized":false},{"bufferView":6,"byteOffset":0,"type":"VEC2","componentType":5126,"count":28,"normalized":false},{"bufferView":7,"byteOffset":0,"type":"SCALAR","componentType":5125,"count":30,"normalized":false},{"bufferView":8,"byteOffset":0,"type":"SCALAR","componentType":5125,"count":24,"normalized":false},{"bufferView":9,"byteOffset":0,"type":"SCALAR","componentType":5125,"count":6,"normalized":false}],"materials":[{"name":"wood","pbrMetallicRoughness":{"baseColorFactor":[0.8962264,0.6015712,0.3931559,1],"metallicFactor":0,"roughnessFactor":1},"emissiveFactor":[0,0,0],"doubleSided":false,"alphaMode":"OPAQUE"},{"name":"woodDark","pbrMetallicRoughness":{"baseColorFactor":[0.678000033,0.455947667,0.2990306,1],"metallicFactor":0,"roughnessFactor":1},"emissiveFactor":[0,0,0],"doubleSided":false,"alphaMode":"OPAQUE"},{"name":"metal","pbrMetallicRoughness":{"baseColorFactor":[0.74061054,0.822866738,0.8396226,1],"metallicFactor":0,"roughnessFactor":1},"emissiveFactor":[0,0,0],"doubleSided":false,"alphaMode":"OPAQUE"}],"meshes":[{"name":"Mesh bathroomCabinet","primitives":[{"mode":4,"indices":3,"attributes":{"POSITION":0,"NORMAL":1,"TEXCOORD_0":2},"material":0}]},{"name":"Mesh door","primitives":[{"mode":4,"indices":7,"attributes":{"POSITION":4,"NORMAL":5,"TEXCOORD_0":6},"material":0},{"mode":4,"indices":8,"attributes":{"POSITION":4,"NORMAL":5,"TEXCOORD_0":6},"material":1},{"mode":4,"indices":9,"attributes":{"POSITION":4,"NORMAL":5,"TEXCOORD_0":6},"material":2}]}],"nodes":[{"children":[1],"name":"bathroomCabinet(Clone)","translation":[0,0,0],"rotation":[0,0,0,1],"scale":[1,1,1],"mesh":0},{"name":"door","translation":[0.226844177,0.026844183,-0.0899999961],"rotation":[0,0,0,1],"scale":[1,1,1],"mesh":1}],"scenes":[{"nodes":[0]}],"scene":0}