{"extensionsUsed":["KHR_materials_unlit"],"asset":{"generator":"UniGLTF-1.24","version":"2.0"},"buffers":[{"byteLength":20272,"uri":"data:application/octet-stream;base64,"}],"bufferViews":[{"buffer":0,"byteOffset":0,"byteLength":6180,"target":34962},{"buffer":0,"byteOffset":6180,"byteLength":6180,"target":34962},{"buffer":0,"byteOffset":12360,"byteLength":4120,"target":34962},{"buffer":0,"byteOffset":16480,"byteLength":2184,"target":34963},{"buffer":0,"byteOffset":18664,"byteLength":1584,"target":34963},{"buffer":0,"byteOffset":20248,"byteLength":24,"target":34963}],"accessors":[{"bufferView":0,"byteOffset":0,"type":"VEC3","componentType":5126,"count":515,"max":[0.34,0.16,0],"min":[0,-0.4,-0.29],"normalized":false},{"bufferView":1,"byteOffset":0,"type":"VEC3","componentType":5126,"count":515,"normalized":false},{"bufferView":2,"byteOffset":0,"type":"VEC2","componentType":5126,"count":515,"normalized":false},{"bufferView":3,"byteOffset":0,"type":"SCALAR","componentType":5125,"count":546,"normalized":false},{"bufferView":4,"byteOffset":0,"type":"SCALAR","componentType":5125,"count":396,"normalized":false},{"bufferView":5,"byteOffset":0,"type":"SCALAR","componentType":5125,"count":6,"normalized":false}],"materials":[{"name":"_defaultMat","pbrMetallicRoughness":{"baseColorFactor":[1,1,1,1],"metallicFactor":0,"roughnessFactor":1},"emissiveFactor":[0,0,0],"doubleSided":false,"alphaMode":"OPAQUE"},{"name":"metalLight","pbrMetallicRoughness":{"baseColorFactor":[0.9372549,0.980392158,0.956862748,1],"metallicFactor":0,"roughnessFactor":1},"emissiveFactor":[0,0,0],"doubleSided":false,"alphaMode":"OPAQUE"},{"name":"carpetWhite","pbrMetallicRoughness":{"baseColorFactor":[0.972549,1,1,1],"metallicFactor":0,"roughnessFactor":1},"emissiveFactor":[0,0,0],"doubleSided":false,"alphaMode":"OPAQUE"}],"meshes":[{"name":"Mesh bathroomSink","primitives":[{"mode":4,"indices":3,"attributes":{"POSITION":0,"NORMAL":1,"TEXCOORD_0":2},"material":0},{"mode":4,"indices":4,"attributes":{"POSITION":0,"NORMAL":1,"TEXCOORD_0":2},"material":1},{"mode":4,"indices":5,"attributes":{"POSITION":0,"NORMAL":1,"TEXCOORD_0":2},"material":2}]}],"nodes":[{"name":"bathroomSink(Clone)","translation":[0,0,0],"rotation":[0,0,0,1],"scale":[1,1,1],"mesh":0}],"scenes":[{"nodes":[0]}],"scene":0}