{"extensionsUsed":["KHR_materials_unlit"],"asset":{"generator":"UniGLTF-1.24","version":"2.0"},"buffers":[{"byteLength":4480,"uri":"data:application/octet-stream;base64,"}],"bufferViews":[{"buffer":0,"byteOffset":0,"byteLength":1356,"target":34962},{"buffer":0,"byteOffset":1356,"byteLength":1356,"target":34962},{"buffer":0,"byteOffset":2712,"byteLength":904,"target":34962},{"buffer":0,"byteOffset":3616,"byteLength":576,"target":34963},{"buffer":0,"byteOffset":4192,"byteLength":48,"target":34963},{"buffer":0,"byteOffset":4240,"byteLength":240,"target":34963}],"accessors":[{"bufferView":0,"byteOffset":0,"type":"VEC3","componentType":5126,"count":113,"max":[0.301339984,0.43462503,0.0956],"min":[0,4.443999e-15,-0.0488],"normalized":false},{"bufferView":1,"byteOffset":0,"type":"VEC3","componentType":5126,"count":113,"normalized":false},{"bufferView":2,"byteOffset":0,"type":"VEC2","componentType":5126,"count":113,"normalized":false},{"bufferView":3,"byteOffset":0,"type":"SCALAR","componentType":5125,"count":144,"normalized":false},{"bufferView":4,"byteOffset":0,"type":"SCALAR","componentType":5125,"count":12,"normalized":false},{"bufferView":5,"byteOffset":0,"type":"SCALAR","componentType":5125,"count":60,"normalized":false}],"materials":[{"name":"wood","pbrMetallicRoughness":{"baseColorFactor":[0.8962264,0.6015712,0.3931559,1],"metallicFactor":0,"roughnessFactor":1},"emissiveFactor":[0,0,0],"doubleSided":false,"alphaMode":"OPAQUE"},{"name":"metal","pbrMetallicRoughness":{"baseColorFactor":[0.74061054,0.822866738,0.8396226,1],"metallicFactor":0,"roughnessFactor":1},"emissiveFactor":[0,0,0],"doubleSided":false,"alphaMode":"OPAQUE"},{"name":"glass","pbrMetallicRoughness":{"baseColorFactor":[0.698039234,0.827451,0.768627465,0.5],"metallicFactor":0,"roughnessFactor":1},"emissiveFactor":[0,0,0],"doubleSided":false,"alphaMode":"BLEND"}],"meshes":[{"name":"Mesh bathroomMirror","primitives":[{"mode":4,"indices":3,"attributes":{"POSITION":0,"NORMAL":1,"TEXCOORD_0":2},"material":0},{"mode":4,"indices":4,"attributes":{"POSITION":0,"NORMAL":1,"TEXCOORD_0":2},"material":1},{"mode":4,"indices":5,"attributes":{"POSITION":0,"NORMAL":1,"TEXCOORD_0":2},"material":2}]}],"nodes":[{"name":"bathroomMirror(Clone)","translation":[0,0,0],"rotation":[0,0,0,1],"scale":[1,1,1],"mesh":0}],"scenes":[{"nodes":[0]}],"scene":0}