{"extensionsUsed":["KHR_materials_unlit"],"asset":{"generator":"UniGLTF-1.24","version":"2.0"},"buffers":[{"byteLength":13896,"uri":"data:application/octet-stream;base64,"}],"bufferViews":[{"buffer":0,"byteOffset":0,"byteLength":1872,"target":34962},{"buffer":0,"byteOffset":1872,"byteLength":1872,"target":34962},{"buffer":0,"byteOffset":3744,"byteLength":1248,"target":34962},{"buffer":0,"byteOffset":4992,"byteLength":96,"target":34963},{"buffer":0,"byteOffset":5088,"byteLength":624,"target":34963},{"buffer":0,"byteOffset":5712,"byteLength":480,"target":34963},{"buffer":0,"byteOffset":6192,"byteLength":1224,"target":34962},{"buffer":0,"byteOffset":7416,"byteLength":1224,"target":34962},{"buffer":0,"byteOffset":8640,"byteLength":816,"target":34962},{"buffer":0,"byteOffset":9456,"byteLength":360,"target":34963},{"buffer":0,"byteOffset":9816,"byteLength":408,"target":34963},{"buffer":0,"byteOffset":10224,"byteLength":1152,"target":34962},{"buffer":0,"byteOffset":11376,"byteLength":1152,"target":34962},{"buffer":0,"byteOffset":12528,"byteLength":768,"target":34962},{"buffer":0,"byteOffset":13296,"byteLength":600,"target":34963}],"accessors":[{"bufferView":0,"byteOffset":0,"type":"VEC3","componentType":5126,"count":156,"max":[0.952999949,0.375,0],"min":[0.388,3.31176872e-14,-1.125],"normalized":false},{"bufferView":1,"byteOffset":0,"type":"VEC3","componentType":5126,"count":156,"normalized":false},{"bufferView":2,"byteOffset":0,"type":"VEC2","componentType":5126,"count":156,"normalized":false},{"bufferView":3,"byteOffset":0,"type":"SCALAR","componentType":5125,"count":24,"normalized":false},{"bufferView":4,"byteOffset":0,"type":"SCALAR","componentType":5125,"count":156,"normalized":false},{"bufferView":5,"byteOffset":0,"type":"SCALAR","componentType":5125,"count":120,"normalized":false},{"bufferView":6,"byteOffset":0,"type":"VEC3","componentType":5126,"count":102,"max":[1.56469381,0.0899999961,-0.75],"min":[-0.0585505441,-0.13,-1.892],"normalized":false},{"bufferView":7,"byteOffset":0,"type":"VEC3","componentType":5126,"count":102,"normalized":false},{"bufferView":8,"byteOffset":0,"type":"VEC2","componentType":5126,"count":102,"normalized":false},{"bufferView":9,"byteOffset":0,"type":"SCALAR","componentType":5125,"count":90,"normalized":false},{"bufferView":10,"byteOffset":0,"type":"SCALAR","componentType":5125,"count":102,"normalized":false},{"bufferView":11,"byteOffset":0,"type":"VEC3","componentType":5126,"count":96,"max":[0.4,0.14,0],"min":[-7.219114e-16,0.0600000024,-0.4],"normalized":false},{"bufferView":12,"byteOffset":0,"type":"VEC3","componentType":5126,"count":96,"normalized":false},{"bufferView":13,"byteOffset":0,"type":"VEC2","componentType":5126,"count":96,"normalized":false},{"bufferView":14,"byteOffset":0,"type":"SCALAR","componentType":5125,"count":150,"normalized":false}],"materials":[{"name":"carpetWhite","pbrMetallicRoughness":{"baseColorFactor":[0.972549,1,1,1],"metallicFactor":0,"roughnessFactor":1},"emissiveFactor":[0,0,0],"doubleSided":false,"alphaMode":"OPAQUE"},{"name":"wood","pbrMetallicRoughness":{"baseColorFactor":[0.8962264,0.6015712,0.3931559,1],"metallicFactor":0,"roughnessFactor":1},"emissiveFactor":[0,0,0],"doubleSided":false,"alphaMode":"OPAQUE"},{"name":"metal","pbrMetallicRoughness":{"baseColorFactor":[0.74061054,0.822866738,0.8396226,1],"metallicFactor":0,"roughnessFactor":1},"emissiveFactor":[0,0,0],"doubleSided":false,"alphaMode":"OPAQUE"},{"name":"carpet","pbrMetallicRoughness":{"baseColorFactor":[0.9433962,0.367175967,0.3426486,1],"metallicFactor":0,"roughnessFactor":1},"emissiveFactor":[0,0,0],"doubleSided":false,"alphaMode":"OPAQUE"}],"meshes":[{"name":"Mesh bedSingle","primitives":[{"mode":4,"indices":3,"attributes":{"POSITION":0,"NORMAL":1,"TEXCOORD_0":2},"material":0},{"mode":4,"indices":4,"attributes":{"POSITION":0,"NORMAL":1,"TEXCOORD_0":2},"material":1},{"mode":4,"indices":5,"attributes":{"POSITION":0,"NORMAL":1,"TEXCOORD_0":2},"material":2}]},{"name":"Mesh cover","primitives":[{"mode":4,"indices":9,"attributes":{"POSITION":6,"NORMAL":7,"TEXCOORD_0":8},"material":3},{"mode":4,"indices":10,"attributes":{"POSITION":6,"NORMAL":7,"TEXCOORD_0":8},"material":0}]},{"name":"Mesh pillowLeft","primitives":[{"mode":4,"indices":14,"attributes":{"POSITION":11,"NORMAL":12,"TEXCOORD_0":13},"material":0}]}],"nodes":[{"children":[1,2],"name":"bedSingle(Clone)","translation":[0,0,0],"rotation":[0,0,0,1],"scale":[1,1,1],"mesh":0},{"name":"cover","translation":[0.01,0.215,-0.7923018],"rotation":[0,-0.707106769,0,0.7071068],"scale":[0.5,0.5,0.5],"mesh":1},{"name":"pillow","translation":[0.503,0.217044547,-1.03126669],"rotation":[0.0443996079,-0.705711544,-0.0443996079,0.7057115],"scale":[0.5,0.5,0.85],"mesh":2}],"scenes":[{"nodes":[0]}],"scene":0}