{"extensionsUsed":["KHR_materials_unlit"],"asset":{"generator":"UniGLTF-1.24","version":"2.0"},"buffers":[{"byteLength":7992,"uri":"data:application/octet-stream;base64,"}],"bufferViews":[{"buffer":0,"byteOffset":0,"byteLength":2376,"target":34962},{"buffer":0,"byteOffset":2376,"byteLength":2376,"target":34962},{"buffer":0,"byteOffset":4752,"byteLength":1584,"target":34962},{"buffer":0,"byteOffset":6336,"byteLength":1416,"target":34963},{"buffer":0,"byteOffset":7752,"byteLength":216,"target":34963},{"buffer":0,"byteOffset":7968,"byteLength":24,"target":34963}],"accessors":[{"bufferView":0,"byteOffset":0,"type":"VEC3","componentType":5126,"count":198,"max":[0.410000026,0.2,0.01],"min":[-0.01,0,-0.21],"normalized":false},{"bufferView":1,"byteOffset":0,"type":"VEC3","componentType":5126,"count":198,"normalized":false},{"bufferView":2,"byteOffset":0,"type":"VEC2","componentType":5126,"count":198,"normalized":false},{"bufferView":3,"byteOffset":0,"type":"SCALAR","componentType":5125,"count":354,"normalized":false},{"bufferView":4,"byteOffset":0,"type":"SCALAR","componentType":5125,"count":54,"normalized":false},{"bufferView":5,"byteOffset":0,"type":"SCALAR","componentType":5125,"count":6,"normalized":false}],"materials":[{"name":"wood","pbrMetallicRoughness":{"baseColorFactor":[0.8962264,0.6015712,0.3931559,1],"metallicFactor":0,"roughnessFactor":1},"emissiveFactor":[0,0,0],"doubleSided":false,"alphaMode":"OPAQUE"},{"name":"carpet","pbrMetallicRoughness":{"baseColorFactor":[0.9433962,0.367175967,0.3426486,1],"metallicFactor":0,"roughnessFactor":1},"emissiveFactor":[0,0,0],"doubleSided":false,"alphaMode":"OPAQUE"},{"name":"_defaultMat","pbrMetallicRoughness":{"baseColorFactor":[1,1,1,1],"metallicFactor":0,"roughnessFactor":1},"emissiveFactor":[0,0,0],"doubleSided":false,"alphaMode":"OPAQUE"}],"meshes":[{"name":"Mesh benchCushionLow","primitives":[{"mode":4,"indices":3,"attributes":{"POSITION":0,"NORMAL":1,"TEXCOORD_0":2},"material":0},{"mode":4,"indices":4,"attributes":{"POSITION":0,"NORMAL":1,"TEXCOORD_0":2},"material":1},{"mode":4,"indices":5,"attributes":{"POSITION":0,"NORMAL":1,"TEXCOORD_0":2},"material":2}]}],"nodes":[{"name":"benchCushionLow(Clone)","translation":[0,0,0],"rotation":[0,0,0,1],"scale":[1,1,1],"mesh":0}],"scenes":[{"nodes":[0]}],"scene":0}