{"extensionsUsed":["KHR_materials_unlit"],"asset":{"generator":"UniGLTF-1.24","version":"2.0"},"buffers":[{"byteLength":10144,"uri":"data:application/octet-stream;base64,"}],"bufferViews":[{"buffer":0,"byteOffset":0,"byteLength":2976,"target":34962},{"buffer":0,"byteOffset":2976,"byteLength":2976,"target":34962},{"buffer":0,"byteOffset":5952,"byteLength":1984,"target":34962},{"buffer":0,"byteOffset":7936,"byteLength":2208,"target":34963}],"accessors":[{"bufferView":0,"byteOffset":0,"type":"VEC3","componentType":5126,"count":248,"max":[0.4,0.4,0],"min":[0,0,-0.25],"normalized":false},{"bufferView":1,"byteOffset":0,"type":"VEC3","componentType":5126,"count":248,"normalized":false},{"bufferView":2,"byteOffset":0,"type":"VEC2","componentType":5126,"count":248,"normalized":false},{"bufferView":3,"byteOffset":0,"type":"SCALAR","componentType":5125,"count":552,"normalized":false}],"materials":[{"name":"wood","pbrMetallicRoughness":{"baseColorFactor":[0.8962264,0.6015712,0.3931559,1],"metallicFactor":0,"roughnessFactor":1},"emissiveFactor":[0,0,0],"doubleSided":false,"alphaMode":"OPAQUE"}],"meshes":[{"name":"Mesh bookcaseOpenLow","primitives":[{"mode":4,"indices":3,"attributes":{"POSITION":0,"NORMAL":1,"TEXCOORD_0":2},"material":0}]}],"nodes":[{"name":"bookcaseOpenLow(Clone)","translation":[0,0,0],"rotation":[0,0,0,1],"scale":[1,1,1],"mesh":0}],"scenes":[{"nodes":[0]}],"scene":0}