{"extensionsUsed":["KHR_materials_unlit"],"asset":{"generator":"UniGLTF-1.24","version":"2.0"},"buffers":[{"byteLength":4136,"uri":"data:application/octet-stream;base64,"}],"bufferViews":[{"buffer":0,"byteOffset":0,"byteLength":1272,"target":34962},{"buffer":0,"byteOffset":1272,"byteLength":1272,"target":34962},{"buffer":0,"byteOffset":2544,"byteLength":848,"target":34962},{"buffer":0,"byteOffset":3392,"byteLength":444,"target":34963},{"buffer":0,"byteOffset":3836,"byteLength":48,"target":34963},{"buffer":0,"byteOffset":3884,"byteLength":132,"target":34963},{"buffer":0,"byteOffset":4016,"byteLength":120,"target":34963}],"accessors":[{"bufferView":0,"byteOffset":0,"type":"VEC3","componentType":5126,"count":106,"max":[0.150447592,0.103902258,0],"min":[0,0,-0.0945],"normalized":false},{"bufferView":1,"byteOffset":0,"type":"VEC3","componentType":5126,"count":106,"normalized":false},{"bufferView":2,"byteOffset":0,"type":"VEC2","componentType":5126,"count":106,"normalized":false},{"bufferView":3,"byteOffset":0,"type":"SCALAR","componentType":5125,"count":111,"normalized":false},{"bufferView":4,"byteOffset":0,"type":"SCALAR","componentType":5125,"count":12,"normalized":false},{"bufferView":5,"byteOffset":0,"type":"SCALAR","componentType":5125,"count":33,"normalized":false},{"bufferView":6,"byteOffset":0,"type":"SCALAR","componentType":5125,"count":30,"normalized":false}],"materials":[{"name":"carpetDarker","pbrMetallicRoughness":{"baseColorFactor":[0.608,0.29781273,0.285152018,1],"metallicFactor":0,"roughnessFactor":1},"emissiveFactor":[0,0,0],"doubleSided":false,"alphaMode":"OPAQUE"},{"name":"carpetWhite","pbrMetallicRoughness":{"baseColorFactor":[0.972549,1,1,1],"metallicFactor":0,"roughnessFactor":1},"emissiveFactor":[0,0,0],"doubleSided":false,"alphaMode":"OPAQUE"},{"name":"plant","pbrMetallicRoughness":{"baseColorFactor":[0.181959763,0.8207547,0.575828552,1],"metallicFactor":0,"roughnessFactor":1},"emissiveFactor":[0,0,0],"doubleSided":false,"alphaMode":"OPAQUE"},{"name":"metal","pbrMetallicRoughness":{"baseColorFactor":[0.74061054,0.822866738,0.8396226,1],"metallicFactor":0,"roughnessFactor":1},"emissiveFactor":[0,0,0],"doubleSided":false,"alphaMode":"OPAQUE"}],"meshes":[{"name":"Mesh books","primitives":[{"mode":4,"indices":3,"attributes":{"POSITION":0,"NORMAL":1,"TEXCOORD_0":2},"material":0},{"mode":4,"indices":4,"attributes":{"POSITION":0,"NORMAL":1,"TEXCOORD_0":2},"material":1},{"mode":4,"indices":5,"attributes":{"POSITION":0,"NORMAL":1,"TEXCOORD_0":2},"material":2},{"mode":4,"indices":6,"attributes":{"POSITION":0,"NORMAL":1,"TEXCOORD_0":2},"material":3}]}],"nodes":[{"name":"books(Clone)","translation":[0,0,0],"rotation":[0,0,0,1],"scale":[1,1,1],"mesh":0}],"scenes":[{"nodes":[0]}],"scene":0}