{"extensionsUsed":["KHR_materials_unlit"],"asset":{"generator":"UniGLTF-1.24","version":"2.0"},"buffers":[{"byteLength":8920,"uri":"data:application/octet-stream;base64,"}],"bufferViews":[{"buffer":0,"byteOffset":0,"byteLength":1848,"target":34962},{"buffer":0,"byteOffset":1848,"byteLength":1848,"target":34962},{"buffer":0,"byteOffset":3696,"byteLength":1232,"target":34962},{"buffer":0,"byteOffset":4928,"byteLength":1104,"target":34963},{"buffer":0,"byteOffset":6032,"byteLength":48,"target":34963},{"buffer":0,"byteOffset":6084,"byteLength":864,"target":34962},{"buffer":0,"byteOffset":6948,"byteLength":864,"target":34962},{"buffer":0,"byteOffset":7816,"byteLength":576,"target":34962},{"buffer":0,"byteOffset":8392,"byteLength":408,"target":34963},{"buffer":0,"byteOffset":8800,"byteLength":120,"target":34963}],"accessors":[{"bufferView":0,"byteOffset":0,"type":"VEC3","componentType":5126,"count":154,"max":[0.255999982,0.263199985,0.01],"min":[-0.01,0,-0.205000013],"normalized":false},{"bufferView":1,"byteOffset":0,"type":"VEC3","componentType":5126,"count":154,"normalized":false},{"bufferView":2,"byteOffset":0,"type":"VEC2","componentType":5126,"count":154,"normalized":false},{"bufferView":3,"byteOffset":0,"type":"SCALAR","componentType":5125,"count":276,"normalized":false},{"bufferView":4,"byteOffset":0,"type":"SCALAR","componentType":5125,"count":12,"normalized":false},{"bufferView":5,"byteOffset":0,"type":"VEC3","componentType":5126,"count":72,"max":[0.1968,0.05039062,0.176299989],"min":[0,0.000390619156,-7.219114e-16],"normalized":false},{"bufferView":6,"byteOffset":0,"type":"VEC3","componentType":5126,"count":72,"normalized":false},{"bufferView":7,"byteOffset":0,"type":"VEC2","componentType":5126,"count":72,"normalized":false},{"bufferView":8,"byteOffset":0,"type":"SCALAR","componentType":5125,"count":102,"normalized":false},{"bufferView":9,"byteOffset":0,"type":"SCALAR","componentType":5125,"count":30,"normalized":false}],"materials":[{"name":"wood","pbrMetallicRoughness":{"baseColorFactor":[0.8962264,0.6015712,0.3931559,1],"metallicFactor":0,"roughnessFactor":1},"emissiveFactor":[0,0,0],"doubleSided":false,"alphaMode":"OPAQUE"},{"name":"_defaultMat","pbrMetallicRoughness":{"baseColorFactor":[1,1,1,1],"metallicFactor":0,"roughnessFactor":1},"emissiveFactor":[0,0,0],"doubleSided":false,"alphaMode":"OPAQUE"},{"name":"metal","pbrMetallicRoughness":{"baseColorFactor":[0.74061054,0.822866738,0.8396226,1],"metallicFactor":0,"roughnessFactor":1},"emissiveFactor":[0,0,0],"doubleSided":false,"alphaMode":"OPAQUE"}],"meshes":[{"name":"Mesh cabinetBedDrawerTable","primitives":[{"mode":4,"indices":3,"attributes":{"POSITION":0,"NORMAL":1,"TEXCOORD_0":2},"material":0},{"mode":4,"indices":4,"attributes":{"POSITION":0,"NORMAL":1,"TEXCOORD_0":2},"material":1}]},{"name":"Mesh drawer","primitives":[{"mode":4,"indices":8,"attributes":{"POSITION":5,"NORMAL":6,"TEXCOORD_0":7},"material":0},{"mode":4,"indices":9,"attributes":{"POSITION":5,"NORMAL":6,"TEXCOORD_0":7},"material":2}]}],"nodes":[{"children":[1],"name":"cabinetBedDrawerTable(Clone)","translation":[0,0,0],"rotation":[0,0,0,1],"scale":[1,1,1],"mesh":0},{"name":"drawer","translation":[0.0246,0.168209374,-0.16399999],"rotation":[0,0,0,1],"scale":[1,1,1],"mesh":1}],"scenes":[{"nodes":[0]}],"scene":0}