{"extensionsUsed":["KHR_materials_unlit"],"asset":{"generator":"UniGLTF-1.24","version":"2.0"},"buffers":[{"byteLength":12240,"uri":"data:application/octet-stream;base64,"}],"bufferViews":[{"buffer":0,"byteOffset":0,"byteLength":2832,"target":34962},{"buffer":0,"byteOffset":2832,"byteLength":2832,"target":34962},{"buffer":0,"byteOffset":5664,"byteLength":1888,"target":34962},{"buffer":0,"byteOffset":7552,"byteLength":1848,"target":34963},{"buffer":0,"byteOffset":9408,"byteLength":864,"target":34962},{"buffer":0,"byteOffset":10272,"byteLength":864,"target":34962},{"buffer":0,"byteOffset":11136,"byteLength":576,"target":34962},{"buffer":0,"byteOffset":11712,"byteLength":408,"target":34963},{"buffer":0,"byteOffset":12120,"byteLength":120,"target":34963}],"accessors":[{"bufferView":0,"byteOffset":0,"type":"VEC3","componentType":5126,"count":236,"max":[0.724475443,0.38440755,0.01],"min":[-0.01,0,-0.38],"normalized":false},{"bufferView":1,"byteOffset":0,"type":"VEC3","componentType":5126,"count":236,"normalized":false},{"bufferView":2,"byteOffset":0,"type":"VEC2","componentType":5126,"count":236,"normalized":false},{"bufferView":3,"byteOffset":0,"type":"SCALAR","componentType":5125,"count":462,"normalized":false},{"bufferView":4,"byteOffset":0,"type":"VEC3","componentType":5126,"count":72,"max":[0.1968,0.05039062,0.176299989],"min":[0,0.000390619156,-7.219114e-16],"normalized":false},{"bufferView":5,"byteOffset":0,"type":"VEC3","componentType":5126,"count":72,"normalized":false},{"bufferView":6,"byteOffset":0,"type":"VEC2","componentType":5126,"count":72,"normalized":false},{"bufferView":7,"byteOffset":0,"type":"SCALAR","componentType":5125,"count":102,"normalized":false},{"bufferView":8,"byteOffset":0,"type":"SCALAR","componentType":5125,"count":30,"normalized":false}],"materials":[{"name":"wood","pbrMetallicRoughness":{"baseColorFactor":[0.8962264,0.6015712,0.3931559,1],"metallicFactor":0,"roughnessFactor":1},"emissiveFactor":[0,0,0],"doubleSided":false,"alphaMode":"OPAQUE"},{"name":"metal","pbrMetallicRoughness":{"baseColorFactor":[0.74061054,0.822866738,0.8396226,1],"metallicFactor":0,"roughnessFactor":1},"emissiveFactor":[0,0,0],"doubleSided":false,"alphaMode":"OPAQUE"}],"meshes":[{"name":"Mesh desk","primitives":[{"mode":4,"indices":3,"attributes":{"POSITION":0,"NORMAL":1,"TEXCOORD_0":2},"material":0}]},{"name":"Mesh drawer","primitives":[{"mode":4,"indices":7,"attributes":{"POSITION":4,"NORMAL":5,"TEXCOORD_0":6},"material":0},{"mode":4,"indices":8,"attributes":{"POSITION":4,"NORMAL":5,"TEXCOORD_0":6},"material":1}]}],"nodes":[{"children":[1],"name":"desk(Clone)","translation":[0,0,0],"rotation":[0,0,0,1],"scale":[1,1,1],"mesh":0},{"name":"drawer","translation":[0.04,0.274016947,-0.16399999],"rotation":[0,0,0,1],"scale":[1,1,1],"mesh":1}],"scenes":[{"nodes":[0]}],"scene":0}