{"extensionsUsed":["KHR_materials_unlit"],"asset":{"generator":"UniGLTF-1.24","version":"2.0"},"buffers":[{"byteLength":50160,"uri":"data:application/octet-stream;base64,"}],"bufferViews":[{"buffer":0,"byteOffset":0,"byteLength":14088,"target":34962},{"buffer":0,"byteOffset":14088,"byteLength":14088,"target":34962},{"buffer":0,"byteOffset":28176,"byteLength":9392,"target":34962},{"buffer":0,"byteOffset":37568,"byteLength":336,"target":34963},{"buffer":0,"byteOffset":37904,"byteLength":312,"target":34963},{"buffer":0,"byteOffset":38216,"byteLength":7536,"target":34963},{"buffer":0,"byteOffset":45752,"byteLength":1104,"target":34963},{"buffer":0,"byteOffset":46860,"byteLength":984,"target":34962},{"buffer":0,"byteOffset":47844,"byteLength":984,"target":34962},{"buffer":0,"byteOffset":48832,"byteLength":656,"target":34962},{"buffer":0,"byteOffset":49488,"byteLength":624,"target":34963},{"buffer":0,"byteOffset":50112,"byteLength":48,"target":34963}],"accessors":[{"bufferView":0,"byteOffset":0,"type":"VEC3","componentType":5126,"count":1174,"max":[0.43,0.45,0],"min":[0,0,-0.45],"normalized":false},{"bufferView":1,"byteOffset":0,"type":"VEC3","componentType":5126,"count":1174,"normalized":false},{"bufferView":2,"byteOffset":0,"type":"VEC2","componentType":5126,"count":1174,"normalized":false},{"bufferView":3,"byteOffset":0,"type":"SCALAR","componentType":5125,"count":84,"normalized":false},{"bufferView":4,"byteOffset":0,"type":"SCALAR","componentType":5125,"count":78,"normalized":false},{"bufferView":5,"byteOffset":0,"type":"SCALAR","componentType":5125,"count":1884,"normalized":false},{"bufferView":6,"byteOffset":0,"type":"SCALAR","componentType":5125,"count":276,"normalized":false},{"bufferView":7,"byteOffset":0,"type":"VEC3","componentType":5126,"count":82,"max":[0.37631163,0.278069764,0.0300000012],"min":[0,0,-0.01],"normalized":false},{"bufferView":8,"byteOffset":0,"type":"VEC3","componentType":5126,"count":82,"normalized":false},{"bufferView":9,"byteOffset":0,"type":"VEC2","componentType":5126,"count":82,"normalized":false},{"bufferView":10,"byteOffset":0,"type":"SCALAR","componentType":5125,"count":156,"normalized":false},{"bufferView":11,"byteOffset":0,"type":"SCALAR","componentType":5125,"count":12,"normalized":false}],"materials":[{"name":"metal","pbrMetallicRoughness":{"baseColorFactor":[0.74061054,0.822866738,0.8396226,1],"metallicFactor":0,"roughnessFactor":1},"emissiveFactor":[0,0,0],"doubleSided":false,"alphaMode":"OPAQUE"},{"name":"wood","pbrMetallicRoughness":{"baseColorFactor":[0.8962264,0.6015712,0.3931559,1],"metallicFactor":0,"roughnessFactor":1},"emissiveFactor":[0,0,0],"doubleSided":false,"alphaMode":"OPAQUE"},{"name":"metalDark","pbrMetallicRoughness":{"baseColorFactor":[0.305882365,0.3882353,0.3882353,1],"metallicFactor":0,"roughnessFactor":1},"emissiveFactor":[0,0,0],"doubleSided":false,"alphaMode":"OPAQUE"},{"name":"carpetWhite","pbrMetallicRoughness":{"baseColorFactor":[0.972549,1,1,1],"metallicFactor":0,"roughnessFactor":1},"emissiveFactor":[0,0,0],"doubleSided":false,"alphaMode":"OPAQUE"},{"name":"glass","pbrMetallicRoughness":{"baseColorFactor":[0.698039234,0.827451,0.768627465,0.5],"metallicFactor":0,"roughnessFactor":1},"emissiveFactor":[0,0,0],"doubleSided":false,"alphaMode":"BLEND"}],"meshes":[{"name":"Mesh kitchenStove","primitives":[{"mode":4,"indices":3,"attributes":{"POSITION":0,"NORMAL":1,"TEXCOORD_0":2},"material":0},{"mode":4,"indices":4,"attributes":{"POSITION":0,"NORMAL":1,"TEXCOORD_0":2},"material":1},{"mode":4,"indices":5,"attributes":{"POSITION":0,"NORMAL":1,"TEXCOORD_0":2},"material":2},{"mode":4,"indices":6,"attributes":{"POSITION":0,"NORMAL":1,"TEXCOORD_0":2},"material":3}]},{"name":"Mesh door","primitives":[{"mode":4,"indices":10,"attributes":{"POSITION":7,"NORMAL":8,"TEXCOORD_0":9},"material":0},{"mode":4,"indices":11,"attributes":{"POSITION":7,"NORMAL":8,"TEXCOORD_0":9},"material":4}]}],"nodes":[{"children":[1],"name":"kitchenStove(Clone)","translation":[0,0,0],"rotation":[0,0,0,1],"scale":[1,1,1],"mesh":0},{"name":"door","translation":[0.026844183,0.08508605,-0.0300000012],"rotation":[0,0,0,1],"scale":[1,1,1],"mesh":1}],"scenes":[{"nodes":[0]}],"scene":0}