{"extensionsUsed":["KHR_materials_unlit"],"asset":{"generator":"UniGLTF-1.24","version":"2.0"},"buffers":[{"byteLength":18608,"uri":"data:application/octet-stream;base64,"}],"bufferViews":[{"buffer":0,"byteOffset":0,"byteLength":4848,"target":34962},{"buffer":0,"byteOffset":4848,"byteLength":4848,"target":34962},{"buffer":0,"byteOffset":9696,"byteLength":3232,"target":34962},{"buffer":0,"byteOffset":12928,"byteLength":672,"target":34963},{"buffer":0,"byteOffset":13600,"byteLength":984,"target":34963},{"buffer":0,"byteOffset":14584,"byteLength":48,"target":34963},{"buffer":0,"byteOffset":14632,"byteLength":1608,"target":34963},{"buffer":0,"byteOffset":16240,"byteLength":24,"target":34963},{"buffer":0,"byteOffset":16272,"byteLength":696,"target":34962},{"buffer":0,"byteOffset":16968,"byteLength":696,"target":34962},{"buffer":0,"byteOffset":17664,"byteLength":464,"target":34962},{"buffer":0,"byteOffset":18128,"byteLength":216,"target":34963},{"buffer":0,"byteOffset":18344,"byteLength":96,"target":34963},{"buffer":0,"byteOffset":18440,"byteLength":168,"target":34963}],"accessors":[{"bufferView":0,"byteOffset":0,"type":"VEC3","componentType":5126,"count":404,"max":[0.43,0.48999998,0],"min":[0,0,-0.45],"normalized":false},{"bufferView":1,"byteOffset":0,"type":"VEC3","componentType":5126,"count":404,"normalized":false},{"bufferView":2,"byteOffset":0,"type":"VEC2","componentType":5126,"count":404,"normalized":false},{"bufferView":3,"byteOffset":0,"type":"SCALAR","componentType":5125,"count":168,"normalized":false},{"bufferView":4,"byteOffset":0,"type":"SCALAR","componentType":5125,"count":246,"normalized":false},{"bufferView":5,"byteOffset":0,"type":"SCALAR","componentType":5125,"count":12,"normalized":false},{"bufferView":6,"byteOffset":0,"type":"SCALAR","componentType":5125,"count":402,"normalized":false},{"bufferView":7,"byteOffset":0,"type":"SCALAR","componentType":5125,"count":6,"normalized":false},{"bufferView":8,"byteOffset":0,"type":"VEC3","componentType":5126,"count":58,"max":[0.37631163,0.278069764,0.0300000012],"min":[0,0,-0.01],"normalized":false},{"bufferView":9,"byteOffset":0,"type":"VEC3","componentType":5126,"count":58,"normalized":false},{"bufferView":10,"byteOffset":0,"type":"VEC2","componentType":5126,"count":58,"normalized":false},{"bufferView":11,"byteOffset":0,"type":"SCALAR","componentType":5125,"count":54,"normalized":false},{"bufferView":12,"byteOffset":0,"type":"SCALAR","componentType":5125,"count":24,"normalized":false},{"bufferView":13,"byteOffset":0,"type":"SCALAR","componentType":5125,"count":42,"normalized":false}],"materials":[{"name":"wood","pbrMetallicRoughness":{"baseColorFactor":[0.8962264,0.6015712,0.3931559,1],"metallicFactor":0,"roughnessFactor":1},"emissiveFactor":[0,0,0],"doubleSided":false,"alphaMode":"OPAQUE"},{"name":"metal","pbrMetallicRoughness":{"baseColorFactor":[0.74061054,0.822866738,0.8396226,1],"metallicFactor":0,"roughnessFactor":1},"emissiveFactor":[0,0,0],"doubleSided":false,"alphaMode":"OPAQUE"},{"name":"metalDark","pbrMetallicRoughness":{"baseColorFactor":[0.305882365,0.3882353,0.3882353,1],"metallicFactor":0,"roughnessFactor":1},"emissiveFactor":[0,0,0],"doubleSided":false,"alphaMode":"OPAQUE"},{"name":"metalLight","pbrMetallicRoughness":{"baseColorFactor":[0.9372549,0.980392158,0.956862748,1],"metallicFactor":0,"roughnessFactor":1},"emissiveFactor":[0,0,0],"doubleSided":false,"alphaMode":"OPAQUE"},{"name":"_defaultMat","pbrMetallicRoughness":{"baseColorFactor":[1,1,1,1],"metallicFactor":0,"roughnessFactor":1},"emissiveFactor":[0,0,0],"doubleSided":false,"alphaMode":"OPAQUE"},{"name":"woodDark","pbrMetallicRoughness":{"baseColorFactor":[0.678000033,0.455947667,0.2990306,1],"metallicFactor":0,"roughnessFactor":1},"emissiveFactor":[0,0,0],"doubleSided":false,"alphaMode":"OPAQUE"}],"meshes":[{"name":"Mesh kitchenSink","primitives":[{"mode":4,"indices":3,"attributes":{"POSITION":0,"NORMAL":1,"TEXCOORD_0":2},"material":0},{"mode":4,"indices":4,"attributes":{"POSITION":0,"NORMAL":1,"TEXCOORD_0":2},"material":1},{"mode":4,"indices":5,"attributes":{"POSITION":0,"NORMAL":1,"TEXCOORD_0":2},"material":2},{"mode":4,"indices":6,"attributes":{"POSITION":0,"NORMAL":1,"TEXCOORD_0":2},"material":3},{"mode":4,"indices":7,"attributes":{"POSITION":0,"NORMAL":1,"TEXCOORD_0":2},"material":4}]},{"name":"Mesh door","primitives":[{"mode":4,"indices":11,"attributes":{"POSITION":8,"NORMAL":9,"TEXCOORD_0":10},"material":0},{"mode":4,"indices":12,"attributes":{"POSITION":8,"NORMAL":9,"TEXCOORD_0":10},"material":5},{"mode":4,"indices":13,"attributes":{"POSITION":8,"NORMAL":9,"TEXCOORD_0":10},"material":1}]}],"nodes":[{"children":[1],"name":"kitchenSink(Clone)","translation":[0,0,0],"rotation":[0,0,0,1],"scale":[1,1,1],"mesh":0},{"name":"door","translation":[0.026844183,0.08508605,-0.0300000012],"rotation":[0,0,0,1],"scale":[1,1,1],"mesh":1}],"scenes":[{"nodes":[0]}],"scene":0}