{"extensionsUsed":["KHR_materials_unlit"],"asset":{"generator":"UniGLTF-1.24","version":"2.0"},"buffers":[{"byteLength":6944,"uri":"data:application/octet-stream;base64,"}],"bufferViews":[{"buffer":0,"byteOffset":0,"byteLength":1392,"target":34962},{"buffer":0,"byteOffset":1392,"byteLength":1392,"target":34962},{"buffer":0,"byteOffset":2784,"byteLength":928,"target":34962},{"buffer":0,"byteOffset":3712,"byteLength":264,"target":34963},{"buffer":0,"byteOffset":3976,"byteLength":624,"target":34963},{"buffer":0,"byteOffset":4608,"byteLength":696,"target":34962},{"buffer":0,"byteOffset":5304,"byteLength":696,"target":34962},{"buffer":0,"byteOffset":6000,"byteLength":464,"target":34962},{"buffer":0,"byteOffset":6464,"byteLength":216,"target":34963},{"buffer":0,"byteOffset":6680,"byteLength":96,"target":34963},{"buffer":0,"byteOffset":6776,"byteLength":168,"target":34963}],"accessors":[{"bufferView":0,"byteOffset":0,"type":"VEC3","componentType":5126,"count":116,"max":[0.43,0.45,0],"min":[0,0,-0.45],"normalized":false},{"bufferView":1,"byteOffset":0,"type":"VEC3","componentType":5126,"count":116,"normalized":false},{"bufferView":2,"byteOffset":0,"type":"VEC2","componentType":5126,"count":116,"normalized":false},{"bufferView":3,"byteOffset":0,"type":"SCALAR","componentType":5125,"count":66,"normalized":false},{"bufferView":4,"byteOffset":0,"type":"SCALAR","componentType":5125,"count":156,"normalized":false},{"bufferView":5,"byteOffset":0,"type":"VEC3","componentType":5126,"count":58,"max":[0.37631163,0.278069764,0.0300000012],"min":[0,0,-0.01],"normalized":false},{"bufferView":6,"byteOffset":0,"type":"VEC3","componentType":5126,"count":58,"normalized":false},{"bufferView":7,"byteOffset":0,"type":"VEC2","componentType":5126,"count":58,"normalized":false},{"bufferView":8,"byteOffset":0,"type":"SCALAR","componentType":5125,"count":54,"normalized":false},{"bufferView":9,"byteOffset":0,"type":"SCALAR","componentType":5125,"count":24,"normalized":false},{"bufferView":10,"byteOffset":0,"type":"SCALAR","componentType":5125,"count":42,"normalized":false}],"materials":[{"name":"metal","pbrMetallicRoughness":{"baseColorFactor":[0.74061054,0.822866738,0.8396226,1],"metallicFactor":0,"roughnessFactor":1},"emissiveFactor":[0,0,0],"doubleSided":false,"alphaMode":"OPAQUE"},{"name":"wood","pbrMetallicRoughness":{"baseColorFactor":[0.8962264,0.6015712,0.3931559,1],"metallicFactor":0,"roughnessFactor":1},"emissiveFactor":[0,0,0],"doubleSided":false,"alphaMode":"OPAQUE"},{"name":"woodDark","pbrMetallicRoughness":{"baseColorFactor":[0.678000033,0.455947667,0.2990306,1],"metallicFactor":0,"roughnessFactor":1},"emissiveFactor":[0,0,0],"doubleSided":false,"alphaMode":"OPAQUE"}],"meshes":[{"name":"Mesh kitchenCabinet","primitives":[{"mode":4,"indices":3,"attributes":{"POSITION":0,"NORMAL":1,"TEXCOORD_0":2},"material":0},{"mode":4,"indices":4,"attributes":{"POSITION":0,"NORMAL":1,"TEXCOORD_0":2},"material":1}]},{"name":"Mesh door","primitives":[{"mode":4,"indices":8,"attributes":{"POSITION":5,"NORMAL":6,"TEXCOORD_0":7},"material":1},{"mode":4,"indices":9,"attributes":{"POSITION":5,"NORMAL":6,"TEXCOORD_0":7},"material":2},{"mode":4,"indices":10,"attributes":{"POSITION":5,"NORMAL":6,"TEXCOORD_0":7},"material":0}]}],"nodes":[{"children":[1],"name":"kitchenCabinet(Clone)","translation":[0,0,0],"rotation":[0,0,0,1],"scale":[1,1,1],"mesh":0},{"name":"door","translation":[0.026844183,0.08508605,-0.0300000012],"rotation":[0,0,0,1],"scale":[1,1,1],"mesh":1}],"scenes":[{"nodes":[0]}],"scene":0}