{"extensionsUsed":["KHR_materials_unlit"],"asset":{"generator":"UniGLTF-1.24","version":"2.0"},"buffers":[{"byteLength":15168,"uri":"data:application/octet-stream;base64,"}],"bufferViews":[{"buffer":0,"byteOffset":0,"byteLength":1104,"target":34962},{"buffer":0,"byteOffset":1104,"byteLength":1104,"target":34962},{"buffer":0,"byteOffset":2208,"byteLength":736,"target":34962},{"buffer":0,"byteOffset":2944,"byteLength":768,"target":34963},{"buffer":0,"byteOffset":3712,"byteLength":24,"target":34963},{"buffer":0,"byteOffset":3744,"byteLength":864,"target":34962},{"buffer":0,"byteOffset":4608,"byteLength":864,"target":34962},{"buffer":0,"byteOffset":5472,"byteLength":576,"target":34962},{"buffer":0,"byteOffset":6048,"byteLength":408,"target":34963},{"buffer":0,"byteOffset":6456,"byteLength":120,"target":34963},{"buffer":0,"byteOffset":6576,"byteLength":2592,"target":34962},{"buffer":0,"byteOffset":9168,"byteLength":2592,"target":34962},{"buffer":0,"byteOffset":11760,"byteLength":1728,"target":34962},{"buffer":0,"byteOffset":13488,"byteLength":840,"target":34963},{"buffer":0,"byteOffset":14328,"byteLength":120,"target":34963},{"buffer":0,"byteOffset":14448,"byteLength":720,"target":34963}],"accessors":[{"bufferView":0,"byteOffset":0,"type":"VEC3","componentType":5126,"count":92,"max":[0.43,0.92,-0.02],"min":[0,0,-0.2819339],"normalized":false},{"bufferView":1,"byteOffset":0,"type":"VEC3","componentType":5126,"count":92,"normalized":false},{"bufferView":2,"byteOffset":0,"type":"VEC2","componentType":5126,"count":92,"normalized":false},{"bufferView":3,"byteOffset":0,"type":"SCALAR","componentType":5125,"count":192,"normalized":false},{"bufferView":4,"byteOffset":0,"type":"SCALAR","componentType":5125,"count":6,"normalized":false},{"bufferView":5,"byteOffset":0,"type":"VEC3","componentType":5126,"count":72,"max":[0.37631163,0.189753711,0.035],"min":[0,0,-0.0449999981],"normalized":false},{"bufferView":6,"byteOffset":0,"type":"VEC3","componentType":5126,"count":72,"normalized":false},{"bufferView":7,"byteOffset":0,"type":"VEC2","componentType":5126,"count":72,"normalized":false},{"bufferView":8,"byteOffset":0,"type":"SCALAR","componentType":5125,"count":102,"normalized":false},{"bufferView":9,"byteOffset":0,"type":"SCALAR","componentType":5125,"count":30,"normalized":false},{"bufferView":10,"byteOffset":0,"type":"VEC3","componentType":5126,"count":216,"max":[0.37631163,0.6165779,0.035],"min":[0,0,-0.065],"normalized":false},{"bufferView":11,"byteOffset":0,"type":"VEC3","componentType":5126,"count":216,"normalized":false},{"bufferView":12,"byteOffset":0,"type":"VEC2","componentType":5126,"count":216,"normalized":false},{"bufferView":13,"byteOffset":0,"type":"SCALAR","componentType":5125,"count":210,"normalized":false},{"bufferView":14,"byteOffset":0,"type":"SCALAR","componentType":5125,"count":30,"normalized":false},{"bufferView":15,"byteOffset":0,"type":"SCALAR","componentType":5125,"count":180,"normalized":false}],"materials":[{"name":"metalLight","pbrMetallicRoughness":{"baseColorFactor":[0.9372549,0.980392158,0.956862748,1],"metallicFactor":0,"roughnessFactor":1},"emissiveFactor":[0,0,0],"doubleSided":false,"alphaMode":"OPAQUE"},{"name":"metalDark","pbrMetallicRoughness":{"baseColorFactor":[0.305882365,0.3882353,0.3882353,1],"metallicFactor":0,"roughnessFactor":1},"emissiveFactor":[0,0,0],"doubleSided":false,"alphaMode":"OPAQUE"},{"name":"metal","pbrMetallicRoughness":{"baseColorFactor":[0.74061054,0.822866738,0.8396226,1],"metallicFactor":0,"roughnessFactor":1},"emissiveFactor":[0,0,0],"doubleSided":false,"alphaMode":"OPAQUE"},{"name":"glass","pbrMetallicRoughness":{"baseColorFactor":[0.698039234,0.827451,0.768627465,0.5],"metallicFactor":0,"roughnessFactor":1},"emissiveFactor":[0,0,0],"doubleSided":false,"alphaMode":"BLEND"}],"meshes":[{"name":"Mesh kitchenFridge","primitives":[{"mode":4,"indices":3,"attributes":{"POSITION":0,"NORMAL":1,"TEXCOORD_0":2},"material":0},{"mode":4,"indices":4,"attributes":{"POSITION":0,"NORMAL":1,"TEXCOORD_0":2},"material":1}]},{"name":"Mesh doorFreezer","primitives":[{"mode":4,"indices":8,"attributes":{"POSITION":5,"NORMAL":6,"TEXCOORD_0":7},"material":0},{"mode":4,"indices":9,"attributes":{"POSITION":5,"NORMAL":6,"TEXCOORD_0":7},"material":2}]},{"name":"Mesh doorFridge","primitives":[{"mode":4,"indices":13,"attributes":{"POSITION":10,"NORMAL":11,"TEXCOORD_0":12},"material":0},{"mode":4,"indices":14,"attributes":{"POSITION":10,"NORMAL":11,"TEXCOORD_0":12},"material":2},{"mode":4,"indices":15,"attributes":{"POSITION":10,"NORMAL":11,"TEXCOORD_0":12},"material":3}]}],"nodes":[{"children":[1,2],"name":"kitchenFridge(Clone)","translation":[0,0,0],"rotation":[0,0,0,1],"scale":[1,1,1],"mesh":0},{"name":"doorFreezer","translation":[0.026844183,0.7034021,-0.025],"rotation":[0,0,0,1],"scale":[1,1,1],"mesh":1},{"name":"doorFridge","translation":[0.026844183,0.08682419,-0.025],"rotation":[0,0,0,1],"scale":[1,1,1],"mesh":2}],"scenes":[{"nodes":[0]}],"scene":0}