{"extensionsUsed":["KHR_materials_unlit"],"asset":{"generator":"UniGLTF-1.24","version":"2.0"},"buffers":[{"byteLength":3672,"uri":"data:application/octet-stream;base64,"}],"bufferViews":[{"buffer":0,"byteOffset":0,"byteLength":1152,"target":34962},{"buffer":0,"byteOffset":1152,"byteLength":1152,"target":34962},{"buffer":0,"byteOffset":2304,"byteLength":768,"target":34962},{"buffer":0,"byteOffset":3072,"byteLength":600,"target":34963}],"accessors":[{"bufferView":0,"byteOffset":0,"type":"VEC3","componentType":5126,"count":96,"max":[0.38657555,0.222162932,0],"min":[0,-3.609557e-16,-0.08848359],"normalized":false},{"bufferView":1,"byteOffset":0,"type":"VEC3","componentType":5126,"count":96,"normalized":false},{"bufferView":2,"byteOffset":0,"type":"VEC2","componentType":5126,"count":96,"normalized":false},{"bufferView":3,"byteOffset":0,"type":"SCALAR","componentType":5125,"count":150,"normalized":false}],"materials":[{"name":"carpet","pbrMetallicRoughness":{"baseColorFactor":[0.9433962,0.367175967,0.3426486,1],"metallicFactor":0,"roughnessFactor":1},"emissiveFactor":[0,0,0],"doubleSided":false,"alphaMode":"OPAQUE"}],"meshes":[{"name":"Mesh pillowLong","primitives":[{"mode":4,"indices":3,"attributes":{"POSITION":0,"NORMAL":1,"TEXCOORD_0":2},"material":0}]}],"nodes":[{"name":"pillowLong(Clone)","translation":[0,0,0],"rotation":[0,0,0,1],"scale":[1,1,1],"mesh":0}],"scenes":[{"nodes":[0]}],"scene":0}