{"extensionsUsed":["KHR_materials_unlit"],"asset":{"generator":"UniGLTF-1.24","version":"2.0"},"buffers":[{"byteLength":6344,"uri":"data:application/octet-stream;base64,"}],"bufferViews":[{"buffer":0,"byteOffset":0,"byteLength":1920,"target":34962},{"buffer":0,"byteOffset":1920,"byteLength":1920,"target":34962},{"buffer":0,"byteOffset":3840,"byteLength":1280,"target":34962},{"buffer":0,"byteOffset":5120,"byteLength":696,"target":34963},{"buffer":0,"byteOffset":5816,"byteLength":528,"target":34963}],"accessors":[{"bufferView":0,"byteOffset":0,"type":"VEC3","componentType":5126,"count":160,"max":[0.09466073,0.28,0.09466073],"min":[-0.09466073,0,-0.09466073],"normalized":false},{"bufferView":1,"byteOffset":0,"type":"VEC3","componentType":5126,"count":160,"normalized":false},{"bufferView":2,"byteOffset":0,"type":"VEC2","componentType":5126,"count":160,"normalized":false},{"bufferView":3,"byteOffset":0,"type":"SCALAR","componentType":5125,"count":174,"normalized":false},{"bufferView":4,"byteOffset":0,"type":"SCALAR","componentType":5125,"count":132,"normalized":false}],"materials":[{"name":"wood","pbrMetallicRoughness":{"baseColorFactor":[0.8962264,0.6015712,0.3931559,1],"metallicFactor":0,"roughnessFactor":1},"emissiveFactor":[0,0,0],"doubleSided":false,"alphaMode":"OPAQUE"},{"name":"plant","pbrMetallicRoughness":{"baseColorFactor":[0.181959763,0.8207547,0.575828552,1],"metallicFactor":0,"roughnessFactor":1},"emissiveFactor":[0,0,0],"doubleSided":false,"alphaMode":"OPAQUE"}],"meshes":[{"name":"Mesh plantSmall1","primitives":[{"mode":4,"indices":3,"attributes":{"POSITION":0,"NORMAL":1,"TEXCOORD_0":2},"material":0},{"mode":4,"indices":4,"attributes":{"POSITION":0,"NORMAL":1,"TEXCOORD_0":2},"material":1}]}],"nodes":[{"name":"plantSmall1(Clone)","translation":[0,0,0],"rotation":[0,-0.707106769,0,0.7071068],"scale":[0.5,0.5,0.5],"mesh":0}],"scenes":[{"nodes":[0]}],"scene":0}