{"extensionsUsed":["KHR_materials_unlit"],"asset":{"generator":"UniGLTF-1.24","version":"2.0"},"buffers":[{"byteLength":4560,"uri":"data:application/octet-stream;base64,"}],"bufferViews":[{"buffer":0,"byteOffset":0,"byteLength":864,"target":34962},{"buffer":0,"byteOffset":864,"byteLength":864,"target":34962},{"buffer":0,"byteOffset":1728,"byteLength":576,"target":34962},{"buffer":0,"byteOffset":2304,"byteLength":480,"target":34963},{"buffer":0,"byteOffset":2784,"byteLength":48,"target":34963},{"buffer":0,"byteOffset":2832,"byteLength":576,"target":34962},{"buffer":0,"byteOffset":3408,"byteLength":576,"target":34962},{"buffer":0,"byteOffset":3984,"byteLength":384,"target":34962},{"buffer":0,"byteOffset":4368,"byteLength":192,"target":34963}],"accessors":[{"bufferView":0,"byteOffset":0,"type":"VEC3","componentType":5126,"count":72,"max":[0.0428942367,0.121520005,0.04953],"min":[-0.0428942367,0,-0.04953],"normalized":false},{"bufferView":1,"byteOffset":0,"type":"VEC3","componentType":5126,"count":72,"normalized":false},{"bufferView":2,"byteOffset":0,"type":"VEC2","componentType":5126,"count":72,"normalized":false},{"bufferView":3,"byteOffset":0,"type":"SCALAR","componentType":5125,"count":120,"normalized":false},{"bufferView":4,"byteOffset":0,"type":"SCALAR","componentType":5125,"count":12,"normalized":false},{"bufferView":5,"byteOffset":0,"type":"VEC3","componentType":5126,"count":48,"max":[0.212059274,0.5357768,0],"min":[0,0,-0.241461948],"normalized":false},{"bufferView":6,"byteOffset":0,"type":"VEC3","componentType":5126,"count":48,"normalized":false},{"bufferView":7,"byteOffset":0,"type":"VEC2","componentType":5126,"count":48,"normalized":false},{"bufferView":8,"byteOffset":0,"type":"SCALAR","componentType":5125,"count":48,"normalized":false}],"materials":[{"name":"wood","pbrMetallicRoughness":{"baseColorFactor":[0.8962264,0.6015712,0.3931559,1],"metallicFactor":0,"roughnessFactor":1},"emissiveFactor":[0,0,0],"doubleSided":false,"alphaMode":"OPAQUE"},{"name":"woodDark","pbrMetallicRoughness":{"baseColorFactor":[0.678000033,0.455947667,0.2990306,1],"metallicFactor":0,"roughnessFactor":1},"emissiveFactor":[0,0,0],"doubleSided":false,"alphaMode":"OPAQUE"},{"name":"plant","pbrMetallicRoughness":{"baseColorFactor":[0.181959763,0.8207547,0.575828552,1],"metallicFactor":0,"roughnessFactor":1},"emissiveFactor":[0,0,0],"doubleSided":false,"alphaMode":"OPAQUE"}],"meshes":[{"name":"Mesh pottedPlant","primitives":[{"mode":4,"indices":3,"attributes":{"POSITION":0,"NORMAL":1,"TEXCOORD_0":2},"material":0},{"mode":4,"indices":4,"attributes":{"POSITION":0,"NORMAL":1,"TEXCOORD_0":2},"material":1}]},{"name":"Mesh plant","primitives":[{"mode":4,"indices":8,"attributes":{"POSITION":5,"NORMAL":6,"TEXCOORD_0":7},"material":2}]}],"nodes":[{"children":[1],"name":"pottedPlant(Clone)","translation":[0,0,0],"rotation":[0,0,0,1],"scale":[2,2,2],"mesh":0},{"name":"plant","translation":[-0.05301482,0.05912,0.0603654869],"rotation":[0,0,0,1],"scale":[0.5,0.5,0.5],"mesh":1}],"scenes":[{"nodes":[0]}],"scene":0}