{"extensionsUsed":["KHR_materials_unlit"],"asset":{"generator":"UniGLTF-1.24","version":"2.0"},"buffers":[{"byteLength":22720,"uri":"data:application/octet-stream;base64,"}],"bufferViews":[{"buffer":0,"byteOffset":0,"byteLength":6576,"target":34962},{"buffer":0,"byteOffset":6576,"byteLength":6576,"target":34962},{"buffer":0,"byteOffset":13152,"byteLength":4384,"target":34962},{"buffer":0,"byteOffset":17536,"byteLength":1128,"target":34963},{"buffer":0,"byteOffset":18664,"byteLength":3744,"target":34963},{"buffer":0,"byteOffset":22408,"byteLength":312,"target":34963}],"accessors":[{"bufferView":0,"byteOffset":0,"type":"VEC3","componentType":5126,"count":548,"max":[0.315,0.228191078,0],"min":[0,0,-0.0975000039],"normalized":false},{"bufferView":1,"byteOffset":0,"type":"VEC3","componentType":5126,"count":548,"normalized":false},{"bufferView":2,"byteOffset":0,"type":"VEC2","componentType":5126,"count":548,"normalized":false},{"bufferView":3,"byteOffset":0,"type":"SCALAR","componentType":5125,"count":282,"normalized":false},{"bufferView":4,"byteOffset":0,"type":"SCALAR","componentType":5125,"count":936,"normalized":false},{"bufferView":5,"byteOffset":0,"type":"SCALAR","componentType":5125,"count":78,"normalized":false}],"materials":[{"name":"metalMedium","pbrMetallicRoughness":{"baseColorFactor":[0.368627459,0.466666669,0.466666669,1],"metallicFactor":0,"roughnessFactor":1},"emissiveFactor":[0,0,0],"doubleSided":false,"alphaMode":"OPAQUE"},{"name":"wood","pbrMetallicRoughness":{"baseColorFactor":[0.8962264,0.6015712,0.3931559,1],"metallicFactor":0,"roughnessFactor":1},"emissiveFactor":[0,0,0],"doubleSided":false,"alphaMode":"OPAQUE"},{"name":"metal","pbrMetallicRoughness":{"baseColorFactor":[0.74061054,0.822866738,0.8396226,1],"metallicFactor":0,"roughnessFactor":1},"emissiveFactor":[0,0,0],"doubleSided":false,"alphaMode":"OPAQUE"}],"meshes":[{"name":"Mesh radio","primitives":[{"mode":4,"indices":3,"attributes":{"POSITION":0,"NORMAL":1,"TEXCOORD_0":2},"material":0},{"mode":4,"indices":4,"attributes":{"POSITION":0,"NORMAL":1,"TEXCOORD_0":2},"material":1},{"mode":4,"indices":5,"attributes":{"POSITION":0,"NORMAL":1,"TEXCOORD_0":2},"material":2}]}],"nodes":[{"name":"radio(Clone)","translation":[0,0,0],"rotation":[0,0,0,1],"scale":[1,1,1],"mesh":0}],"scenes":[{"nodes":[0]}],"scene":0}