{"extensionsUsed":["KHR_materials_unlit"],"asset":{"generator":"UniGLTF-1.24","version":"2.0"},"buffers":[{"byteLength":66896,"uri":"data:application/octet-stream;base64,"}],"bufferViews":[{"buffer":0,"byteOffset":0,"byteLength":8040,"target":34962},{"buffer":0,"byteOffset":8040,"byteLength":8040,"target":34962},{"buffer":0,"byteOffset":16080,"byteLength":5360,"target":34962},{"buffer":0,"byteOffset":21440,"byteLength":3204,"target":34963},{"buffer":0,"byteOffset":24644,"byteLength":60,"target":34963},{"buffer":0,"byteOffset":24708,"byteLength":576,"target":34962},{"buffer":0,"byteOffset":25284,"byteLength":576,"target":34962},{"buffer":0,"byteOffset":25864,"byteLength":384,"target":34962},{"buffer":0,"byteOffset":26248,"byteLength":288,"target":34963},{"buffer":0,"byteOffset":26544,"byteLength":576,"target":34962},{"buffer":0,"byteOffset":27120,"byteLength":576,"target":34962},{"buffer":0,"byteOffset":27696,"byteLength":384,"target":34962},{"buffer":0,"byteOffset":28080,"byteLength":288,"target":34963},{"buffer":0,"byteOffset":28368,"byteLength":11568,"target":34962},{"buffer":0,"byteOffset":39936,"byteLength":11568,"target":34962},{"buffer":0,"byteOffset":51504,"byteLength":7712,"target":34962},{"buffer":0,"byteOffset":59216,"byteLength":7680,"target":34963}],"accessors":[{"bufferView":0,"byteOffset":0,"type":"VEC3","componentType":5126,"count":670,"max":[0.561792,1.09403336,0],"min":[0,0,-0.561792],"normalized":false},{"bufferView":1,"byteOffset":0,"type":"VEC3","componentType":5126,"count":670,"normalized":false},{"bufferView":2,"byteOffset":0,"type":"VEC2","componentType":5126,"count":670,"normalized":false},{"bufferView":3,"byteOffset":0,"type":"SCALAR","componentType":5125,"count":801,"normalized":false},{"bufferView":4,"byteOffset":0,"type":"SCALAR","componentType":5125,"count":15,"normalized":false},{"bufferView":5,"byteOffset":0,"type":"VEC3","componentType":5126,"count":48,"max":[0.156752378,0.9360293,0.378433734],"min":[0,0,0],"normalized":false},{"bufferView":6,"byteOffset":0,"type":"VEC3","componentType":5126,"count":48,"normalized":false},{"bufferView":7,"byteOffset":0,"type":"VEC2","componentType":5126,"count":48,"normalized":false},{"bufferView":8,"byteOffset":0,"type":"SCALAR","componentType":5125,"count":72,"normalized":false},{"bufferView":9,"byteOffset":0,"type":"VEC3","componentType":5126,"count":48,"max":[0,0.9360293,0],"min":[-0.378433734,0,-0.156752378],"normalized":false},{"bufferView":10,"byteOffset":0,"type":"VEC3","componentType":5126,"count":48,"normalized":false},{"bufferView":11,"byteOffset":0,"type":"VEC2","componentType":5126,"count":48,"normalized":false},{"bufferView":12,"byteOffset":0,"type":"SCALAR","componentType":5125,"count":72,"normalized":false},{"bufferView":13,"byteOffset":0,"type":"VEC3","componentType":5126,"count":964,"max":[0.0995645151,0.4910905,0.08435658],"min":[-0.0995645151,0,-0.08435658],"normalized":false},{"bufferView":14,"byteOffset":0,"type":"VEC3","componentType":5126,"count":964,"normalized":false},{"bufferView":15,"byteOffset":0,"type":"VEC2","componentType":5126,"count":964,"normalized":false},{"bufferView":16,"byteOffset":0,"type":"SCALAR","componentType":5125,"count":1920,"normalized":false}],"materials":[{"name":"_defaultMat","pbrMetallicRoughness":{"baseColorFactor":[1,1,1,1],"metallicFactor":0,"roughnessFactor":1},"emissiveFactor":[0,0,0],"doubleSided":false,"alphaMode":"OPAQUE"},{"name":"metalDark","pbrMetallicRoughness":{"baseColorFactor":[0.305882365,0.3882353,0.3882353,1],"metallicFactor":0,"roughnessFactor":1},"emissiveFactor":[0,0,0],"doubleSided":false,"alphaMode":"OPAQUE"},{"name":"glass","pbrMetallicRoughness":{"baseColorFactor":[0.698039234,0.827451,0.768627465,0.5],"metallicFactor":0,"roughnessFactor":1},"emissiveFactor":[0,0,0],"doubleSided":false,"alphaMode":"BLEND"},{"name":"carpetWhite","pbrMetallicRoughness":{"baseColorFactor":[0.972549,1,1,1],"metallicFactor":0,"roughnessFactor":1},"emissiveFactor":[0,0,0],"doubleSided":false,"alphaMode":"OPAQUE"}],"meshes":[{"name":"Mesh showerRound","primitives":[{"mode":4,"indices":3,"attributes":{"POSITION":0,"NORMAL":1,"TEXCOORD_0":2},"material":0},{"mode":4,"indices":4,"attributes":{"POSITION":0,"NORMAL":1,"TEXCOORD_0":2},"material":1}]},{"name":"Mesh doorLeft","primitives":[{"mode":4,"indices":8,"attributes":{"POSITION":5,"NORMAL":6,"TEXCOORD_0":7},"material":2}]},{"name":"Mesh doorRight","primitives":[{"mode":4,"indices":12,"attributes":{"POSITION":9,"NORMAL":10,"TEXCOORD_0":11},"material":2}]},{"name":"Mesh faucet","primitives":[{"mode":4,"indices":16,"attributes":{"POSITION":13,"NORMAL":14,"TEXCOORD_0":15},"material":3}]}],"nodes":[{"children":[1,2,3],"name":"showerRound(Clone)","translation":[0,0,0],"rotation":[0,0,0,1],"scale":[1,1,1],"mesh":0},{"name":"doorLeft","translation":[-7.219114e-16,0.122892,-0.535186052],"rotation":[0,0,0,1],"scale":[1,1,1],"mesh":1},{"name":"doorRight","translation":[0.535186052,0.122892,-7.219114e-16],"rotation":[0,0,0,1],"scale":[1,1,1],"mesh":2},{"name":"faucet","translation":[0.280434936,0.437026948,-0.448924541],"rotation":[0,0.707106769,0,0.7071068],"scale":[1,1,1],"mesh":3}],"scenes":[{"nodes":[0]}],"scene":0}