{"extensionsUsed":["KHR_materials_unlit"],"asset":{"generator":"UniGLTF-1.24","version":"2.0"},"buffers":[{"byteLength":6984,"uri":"data:application/octet-stream;base64,"}],"bufferViews":[{"buffer":0,"byteOffset":0,"byteLength":2088,"target":34962},{"buffer":0,"byteOffset":2088,"byteLength":2088,"target":34962},{"buffer":0,"byteOffset":4176,"byteLength":1392,"target":34962},{"buffer":0,"byteOffset":5568,"byteLength":1392,"target":34963},{"buffer":0,"byteOffset":6960,"byteLength":24,"target":34963}],"accessors":[{"bufferView":0,"byteOffset":0,"type":"VEC3","componentType":5126,"count":174,"max":[0.524475455,0.38440755,0.01],"min":[-0.01,0,-0.21],"normalized":false},{"bufferView":1,"byteOffset":0,"type":"VEC3","componentType":5126,"count":174,"normalized":false},{"bufferView":2,"byteOffset":0,"type":"VEC2","componentType":5126,"count":174,"normalized":false},{"bufferView":3,"byteOffset":0,"type":"SCALAR","componentType":5125,"count":348,"normalized":false},{"bufferView":4,"byteOffset":0,"type":"SCALAR","componentType":5125,"count":6,"normalized":false}],"materials":[{"name":"wood","pbrMetallicRoughness":{"baseColorFactor":[0.8962264,0.6015712,0.3931559,1],"metallicFactor":0,"roughnessFactor":1},"emissiveFactor":[0,0,0],"doubleSided":false,"alphaMode":"OPAQUE"},{"name":"_defaultMat","pbrMetallicRoughness":{"baseColorFactor":[1,1,1,1],"metallicFactor":0,"roughnessFactor":1},"emissiveFactor":[0,0,0],"doubleSided":false,"alphaMode":"OPAQUE"}],"meshes":[{"name":"Mesh sideTable","primitives":[{"mode":4,"indices":3,"attributes":{"POSITION":0,"NORMAL":1,"TEXCOORD_0":2},"material":0},{"mode":4,"indices":4,"attributes":{"POSITION":0,"NORMAL":1,"TEXCOORD_0":2},"material":1}]}],"nodes":[{"name":"sideTable(Clone)","translation":[0,0,0],"rotation":[0,0,0,1],"scale":[1,1,1],"mesh":0}],"scenes":[{"nodes":[0]}],"scene":0}