{"extensionsUsed":["KHR_materials_unlit"],"asset":{"generator":"UniGLTF-1.24","version":"2.0"},"buffers":[{"byteLength":14608,"uri":"data:application/octet-stream;base64,"}],"bufferViews":[{"buffer":0,"byteOffset":0,"byteLength":4152,"target":34962},{"buffer":0,"byteOffset":4152,"byteLength":4152,"target":34962},{"buffer":0,"byteOffset":8304,"byteLength":2768,"target":34962},{"buffer":0,"byteOffset":11072,"byteLength":2232,"target":34963},{"buffer":0,"byteOffset":13304,"byteLength":264,"target":34963},{"buffer":0,"byteOffset":13568,"byteLength":24,"target":34963},{"buffer":0,"byteOffset":13596,"byteLength":288,"target":34962},{"buffer":0,"byteOffset":13884,"byteLength":288,"target":34962},{"buffer":0,"byteOffset":14176,"byteLength":192,"target":34962},{"buffer":0,"byteOffset":14368,"byteLength":240,"target":34963}],"accessors":[{"bufferView":0,"byteOffset":0,"type":"VEC3","componentType":5126,"count":346,"max":[1.00458252,0.9494,0],"min":[-1.44382282e-15,0,-0.658],"normalized":false},{"bufferView":1,"byteOffset":0,"type":"VEC3","componentType":5126,"count":346,"normalized":false},{"bufferView":2,"byteOffset":0,"type":"VEC2","componentType":5126,"count":346,"normalized":false},{"bufferView":3,"byteOffset":0,"type":"SCALAR","componentType":5125,"count":558,"normalized":false},{"bufferView":4,"byteOffset":0,"type":"SCALAR","componentType":5125,"count":66,"normalized":false},{"bufferView":5,"byteOffset":0,"type":"SCALAR","componentType":5125,"count":6,"normalized":false},{"bufferView":6,"byteOffset":0,"type":"VEC3","componentType":5126,"count":24,"max":[0.333524138,0.02,0.131708264],"min":[-1.80477853e-16,0,-0.131708264],"normalized":false},{"bufferView":7,"byteOffset":0,"type":"VEC3","componentType":5126,"count":24,"normalized":false},{"bufferView":8,"byteOffset":0,"type":"VEC2","componentType":5126,"count":24,"normalized":false},{"bufferView":9,"byteOffset":0,"type":"SCALAR","componentType":5125,"count":60,"normalized":false}],"materials":[{"name":"carpetWhite","pbrMetallicRoughness":{"baseColorFactor":[0.972549,1,1,1],"metallicFactor":0,"roughnessFactor":1},"emissiveFactor":[0,0,0],"doubleSided":false,"alphaMode":"OPAQUE"},{"name":"metalLight","pbrMetallicRoughness":{"baseColorFactor":[0.9372549,0.980392158,0.956862748,1],"metallicFactor":0,"roughnessFactor":1},"emissiveFactor":[0,0,0],"doubleSided":false,"alphaMode":"OPAQUE"},{"name":"metalDark","pbrMetallicRoughness":{"baseColorFactor":[0.305882365,0.3882353,0.3882353,1],"metallicFactor":0,"roughnessFactor":1},"emissiveFactor":[0,0,0],"doubleSided":false,"alphaMode":"OPAQUE"},{"name":"_defaultMat","pbrMetallicRoughness":{"baseColorFactor":[1,1,1,1],"metallicFactor":0,"roughnessFactor":1},"emissiveFactor":[0,0,0],"doubleSided":false,"alphaMode":"OPAQUE"}],"meshes":[{"name":"Mesh toilet","primitives":[{"mode":4,"indices":3,"attributes":{"POSITION":0,"NORMAL":1,"TEXCOORD_0":2},"material":0},{"mode":4,"indices":4,"attributes":{"POSITION":0,"NORMAL":1,"TEXCOORD_0":2},"material":1},{"mode":4,"indices":5,"attributes":{"POSITION":0,"NORMAL":1,"TEXCOORD_0":2},"material":2}]},{"name":"Mesh cover","primitives":[{"mode":4,"indices":9,"attributes":{"POSITION":6,"NORMAL":7,"TEXCOORD_0":8},"material":3}]}],"nodes":[{"children":[1],"name":"toilet(Clone)","translation":[0,0,0],"rotation":[0,-0.707106769,0,0.7071068],"scale":[0.475,0.475,0.475],"mesh":0},{"name":"cover","translation":[0.25461334,0.4794,-0.328999966],"rotation":[0,0,0,1],"scale":[2.10526323,2.10526323,2.10526323],"mesh":1}],"scenes":[{"nodes":[0]}],"scene":0}